<svg width="24" height="24" viewBox="0 0 24 24" fill="none" xmlns="http://www.w3.org/2000/svg">
<path d="M11.5 21.75C9.47275 21.75 7.49101 21.1489 5.80541 20.0226C4.11981 18.8963 2.80604 17.2955 2.03024 15.4225C1.25444 13.5496 1.05146 11.4886 1.44696 9.50033C1.84245 7.51202 2.81867 5.68565 4.25216 4.25216C5.68565 2.81867 7.51202 1.84245 9.50033 1.44696C11.4886 1.05146 13.5496 1.25444 15.4225 2.03024C17.2955 2.80604 18.8963 4.11981 20.0226 5.80541C21.1489 7.49101 21.75 9.47275 21.75 11.5C21.7471 14.2176 20.6663 16.823 18.7446 18.7446C16.823 20.6663 14.2176 21.7471 11.5 21.75ZM11.5 2.75C9.76942 2.75 8.0777 3.26318 6.63877 4.22465C5.19984 5.18611 4.07833 6.55267 3.41606 8.15152C2.75379 9.75038 2.58051 11.5097 2.91813 13.207C3.25575 14.9044 4.08911 16.4635 5.31282 17.6872C6.53653 18.9109 8.09563 19.7443 9.79296 20.0819C11.4903 20.4195 13.2496 20.2462 14.8485 19.584C16.4473 18.9217 17.8139 17.8002 18.7754 16.3612C19.7368 14.9223 20.25 13.2306 20.25 11.5C20.2474 9.18017 19.3246 6.95611 17.6843 5.31574C16.0439 3.67537 13.8198 2.75265 11.5 2.75Z" fill="#565554"/>
<path d="M22 22.75C21.9015 22.7502 21.8039 22.7309 21.7129 22.6932C21.622 22.6554 21.5394 22.5999 21.47 22.53L17.69 18.75C17.6163 18.6813 17.5572 18.5985 17.5162 18.5065C17.4752 18.4145 17.4532 18.3152 17.4514 18.2145C17.4496 18.1138 17.4682 18.0138 17.5059 17.9204C17.5436 17.827 17.5997 17.7422 17.671 17.671C17.7422 17.5997 17.827 17.5436 17.9204 17.5059C18.0138 17.4682 18.1138 17.4496 18.2145 17.4514C18.3152 17.4532 18.4145 17.4752 18.5065 17.5162C18.5985 17.5572 18.6813 17.6163 18.75 17.69L22.53 21.47C22.6348 21.5749 22.7061 21.7085 22.735 21.8539C22.7639 21.9993 22.749 22.15 22.6923 22.2869C22.6356 22.4239 22.5396 22.541 22.4163 22.6234C22.2931 22.7058 22.1482 22.7499 22 22.75Z" fill="#565554"/>
</svg>
