<svg xmlns="http://www.w3.org/2000/svg" width="512" height="354" viewBox="0 0 512 354" fill="none">
    <g clipPath="url(#clip0_229_8)">
        <path d="M512 323.281C512 339.997 498.45 353.548 481.735 353.548H30.265C13.55 353.549 0 339.997 0 323.281V30.7172C0 14.0022 13.55 0.451172 30.265 0.451172H481.735C498.451 0.451172 512 14.0022 512 30.7172V323.281Z"
              fill="#306FC5"/>
        <path opacity="0.15"
              d="M21.517 323.281V30.7172C21.517 14.0022 35.069 0.451172 51.784 0.451172H30.264C13.55 0.451172 0 14.0012 0 30.7172V323.282C0 339.998 13.55 353.549 30.265 353.549H51.785C35.07 353.549 21.517 339.997 21.517 323.281Z"
              fill="#202121"/>
        <path d="M74.5898 141.748H89.8878L82.2408 122.278L74.5898 141.748Z" fill="white"/>
        <path d="M155.946 207.107V216.148H181.675V225.885H155.946V236.318H184.455L197.666 221.712L185.151 207.107H155.946Z"
              fill="white"/>
        <path d="M356.898 122.278L348.553 141.748H364.548L356.898 122.278Z" fill="white"/>
        <path d="M230.348 241.875V202.241L212.268 221.712L230.348 241.875Z" fill="white"/>
        <path d="M264.42 213.368C263.724 209.196 260.94 207.107 256.766 207.107H242.167V219.623H257.466C261.637 219.624 264.42 217.539 264.42 213.368Z"
              fill="white"/>
        <path d="M313.09 218.237C314.481 217.54 315.179 215.452 315.179 213.37C315.875 210.591 314.481 209.198 313.09 208.502C311.703 207.806 309.614 207.806 307.531 207.806H293.621V218.933H307.53C309.613 218.933 311.702 218.933 313.09 218.237Z"
              fill="white"/>
        <path d="M413.217 104.198V112.542L409.048 104.198H376.37V112.542L372.196 104.198H327.694C320.046 104.198 313.785 105.59 308.225 108.371V104.198H276.936V104.894V108.371C273.46 105.591 269.288 104.198 263.725 104.198H151.775L144.123 121.582L136.476 104.198H111.445H101.014V112.542L97.537 104.198H96.841H66.942L53.033 136.878L37.042 172.34L36.748 173.037H37.042H72.505H72.949L73.201 172.34L77.375 161.912H86.414L90.586 173.037H130.912V172.34V164.693L134.391 173.036H154.554L158.029 164.693V172.34V173.037H174.022H253.987H254.683V154.957H256.077C257.466 154.957 257.466 154.957 257.466 157.044V172.341H307.531V168.169C311.703 170.258 317.957 172.341 326.302 172.341H347.165L351.337 161.218H361.069L365.241 172.341H405.569V165.389V161.913L411.83 172.341H413.217H413.915H444.51V104.198H413.219H413.217ZM177.501 162.609H170.546H166.375V158.44V124.364L165.679 125.959V125.94L149.503 162.609H148.991H145.272H139.255L122.568 124.364V162.609H98.928L94.061 152.179H70.417L65.549 162.609H53.326L73.896 113.934H91.278L110.747 160.521V113.934H114.918H129.169L129.497 114.631H129.521L138.294 133.725L144.594 148.031L144.817 147.31L158.723 113.935H177.5V162.609H177.501ZM225.481 124.364H198.362V133.403H224.785V143.137H198.362V152.875H225.481V163.302H186.542V113.935H225.481V124.364ZM275.076 142.294C275.094 142.31 275.117 142.321 275.139 142.336C275.402 142.614 275.627 142.893 275.819 143.16C277.151 144.906 278.228 147.503 278.282 151.311C278.286 151.377 278.289 151.442 278.293 151.508C278.293 151.546 278.3 151.579 278.3 151.618C278.3 151.64 278.298 151.657 278.298 151.678C278.314 152.061 278.324 152.452 278.324 152.875V162.61H267.896V157.045C267.896 154.264 267.896 150.091 265.807 147.31C265.15 146.653 264.485 146.22 263.761 145.912C262.719 145.237 260.744 145.226 257.466 145.226H244.946V162.61H233.128V113.935H259.553C265.807 113.935 269.981 113.935 273.459 116.021C276.866 118.067 278.924 121.46 279.002 126.833C278.841 134.233 274.091 138.293 270.676 139.662C270.676 139.662 272.996 140.129 275.076 142.294ZM298.491 162.609H286.669V113.934H298.491V162.609ZM434.083 162.609H418.783L396.533 125.754V156.349L396.46 156.277V162.639H384.713V162.61H372.891L368.719 152.18H344.38L340.208 163.303H326.997C321.438 163.303 314.48 161.914 310.31 157.742C306.138 153.57 304.054 148.007 304.054 138.969C304.054 132.016 305.443 125.058 310.31 119.497C313.784 115.322 320.045 113.935 327.692 113.935H338.82V124.364H327.692C323.52 124.364 321.438 125.057 318.651 127.147C316.569 129.232 315.177 133.403 315.177 138.27C315.177 143.834 315.873 147.31 318.651 150.091C320.742 152.18 323.521 152.876 326.997 152.876H331.864L347.855 114.633H354.812H365.24L384.712 161.22V158.844V143.139V141.75V114.634H402.094L422.255 148.704V114.634H434.081V162.611H434.083V162.609Z"
              fill="white"/>
        <path d="M265.161 134.207C265.364 133.99 265.548 133.744 265.704 133.462C266.334 132.465 267.056 130.669 266.667 128.218C266.651 127.993 266.61 127.785 266.562 127.584C266.549 127.528 266.551 127.479 266.536 127.423L266.529 127.424C266.183 126.233 265.3 125.501 264.419 125.057C263.025 124.364 260.939 124.364 258.854 124.364H244.945V135.491H258.854C260.939 135.491 263.026 135.491 264.419 134.794C264.628 134.688 264.814 134.544 264.993 134.381L264.995 134.39C264.995 134.39 265.067 134.315 265.161 134.207Z"
              fill="white"/>
        <path d="M475.105 232.145C475.105 227.278 473.716 222.409 471.631 218.933V187.644H471.599V185.555C471.599 185.555 442.454 185.555 438.116 185.555C433.78 185.555 428.518 189.726 428.518 189.726V185.555H396.534C391.664 185.555 385.41 186.947 382.625 189.726V185.555H325.609V187.644V189.725C321.44 186.251 313.785 185.554 310.311 185.554H272.762V187.643V189.724C269.286 186.25 260.938 185.553 256.764 185.553H215.05L205.313 195.984L196.273 185.553H193.362H188.625H133.695V187.642V193.135V255.786H194.885L204.939 245.729L213.654 255.786H214.352H249.61H251.208H251.904H252.596V248.833V239.794H256.075C260.938 239.794 267.199 239.794 272.066 237.705V255.087V256.481H303.357V255.087V238.401H304.744C306.833 238.401 306.833 238.401 306.833 240.487V255.087V256.481H401.396C407.659 256.481 413.913 255.087 417.389 252.306V255.087V256.481H447.291C453.545 256.481 459.808 255.786 463.98 253.003C470.382 249.162 474.417 242.363 475.017 234.254C475.045 234.014 475.08 233.774 475.102 233.533L475.061 233.494C475.087 233.044 475.105 232.599 475.105 232.145ZM256.076 227.974H242.166V230.055V234.229V238.402V246.051H219.311L206.009 230.752L205.963 230.803L205.313 230.055L190.016 246.051H145.515V197.378H190.712L203.06 210.903L205.656 213.735L206.008 213.37L220.612 197.379H257.464C264.616 197.379 272.625 199.144 275.66 206.421C276.025 207.862 276.237 209.464 276.237 211.284C276.237 225.19 266.502 227.974 256.076 227.974ZM325.609 227.277C326.998 229.358 327.694 232.144 327.694 236.318V246.05H315.875V239.794C315.875 237.008 315.875 232.144 313.786 230.055C312.399 227.974 309.614 227.974 305.445 227.974H292.93V246.051H281.11V196.682H307.531C313.09 196.682 317.957 196.682 321.44 198.766C324.914 200.854 327.694 204.331 327.694 209.894C327.694 217.541 322.829 221.713 319.351 223.106C322.829 224.491 324.914 225.886 325.609 227.277ZM373.589 207.108H346.467V216.148H372.891V225.885H346.467V235.621H373.589V246.05H334.65V196.681H373.589V207.108ZM402.791 246.051H380.539V235.622H402.791C404.873 235.622 406.267 235.622 407.661 234.23C408.357 233.533 409.048 232.145 409.048 230.753C409.048 229.359 408.357 227.975 407.661 227.278C406.963 226.583 405.57 225.887 403.485 225.887C392.359 225.191 379.148 225.887 379.148 210.591C379.148 203.637 383.32 195.987 395.837 195.987H418.782V207.806H397.228C395.143 207.806 393.75 207.806 392.358 208.502C390.971 209.199 390.971 210.591 390.971 211.98C390.971 214.067 392.358 214.763 393.749 215.453C395.143 216.15 396.532 216.15 397.921 216.15H404.18C410.439 216.15 414.61 217.541 417.391 220.323C419.478 222.41 420.869 225.887 420.869 230.753C420.869 241.18 414.611 246.051 402.791 246.051ZM462.59 241.18C459.812 243.965 454.942 246.051 447.986 246.051H425.74V235.622H447.985C450.072 235.622 451.466 235.622 452.855 234.23C453.548 233.533 454.246 232.145 454.246 230.753C454.246 229.359 453.548 227.975 452.855 227.278C452.159 226.583 450.77 225.887 448.683 225.887C437.561 225.191 424.346 225.887 424.346 210.592C424.346 203.983 428.127 198.013 437.452 196.24C438.567 196.086 439.745 195.987 441.035 195.987H463.983V207.806H448.683H443.122H442.426C440.339 207.806 438.95 207.806 437.561 208.502C436.861 209.199 436.165 210.591 436.165 211.98C436.165 214.067 436.861 214.763 438.95 215.453C440.339 216.15 441.73 216.15 443.122 216.15H443.813H449.378C452.417 216.15 454.715 216.525 456.818 217.264C458.744 217.961 465.12 220.813 466.546 228.258C466.67 229.038 466.761 229.852 466.761 230.753C466.761 234.926 465.37 238.402 462.59 241.18Z"
              fill="white"/>
    </g>
    <defs>
        <clipPath id="clip0_229_8">
            <rect width="512" height="354" fill="white"/>
        </clipPath>
    </defs>
</svg>
