<svg width="25" height="24" viewBox="0 0 25 24" fill="none" xmlns="http://www.w3.org/2000/svg">
<path d="M4.5 11V15C4.5 18.2998 4.5 19.9497 5.52513 20.9749C6.55025 22 8.20017 22 11.5 22H13.5C16.7998 22 18.4497 22 19.4749 20.9749C20.5 19.9497 20.5 18.2998 20.5 15V11M12.5 5.85714C12.5 3.7269 10.7731 2 8.64286 2H8.28571C7.29949 2 6.5 2.79949 6.5 3.78571C6.5 5.56091 7.93908 7 9.71429 7H12.5M12.5 5.85714V7M12.5 5.85714C12.5 3.7269 14.2269 2 16.3571 2H16.7143C17.7005 2 18.5 2.79949 18.5 3.78571C18.5 5.56091 17.0609 7 15.2857 7H12.5M12.5 11V22M3.5 9C3.5 8.25231 3.5 7.87846 3.70096 7.6C3.83261 7.41758 4.02197 7.26609 4.25 7.16077C4.59808 7 5.06538 7 6 7H19C19.9346 7 20.4019 7 20.75 7.16077C20.978 7.26609 21.1674 7.41758 21.299 7.6C21.5 7.87846 21.5 8.25231 21.5 9C21.5 9.74769 21.5 10.1215 21.299 10.4C21.1674 10.5824 20.978 10.7339 20.75 10.8392C20.4019 11 19.9346 11 19 11H6C5.06538 11 4.59808 11 4.25 10.8392C4.02197 10.7339 3.83261 10.5824 3.70096 10.4C3.5 10.1215 3.5 9.74769 3.5 9Z" stroke="#e30613" stroke-width="1.5" stroke-linecap="round" stroke-linejoin="round"/>
</svg>
