<svg width="17" height="14" viewBox="0 0 17 14" fill="none" xmlns="http://www.w3.org/2000/svg">
<path d="M0.833984 4.83331C0.833984 5.91665 1.00065 7.58331 2.50065 9.08331C3.83398 10.4166 8.25065 13.4166 8.41732 13.5833C8.58398 13.6666 8.75065 13.75 8.91732 13.75C9.08398 13.75 9.25065 13.6666 9.41732 13.5833C9.58398 13.4166 14.0007 10.5 15.334 9.08331C16.834 7.58331 17.0007 5.91665 17.0007 4.83331C17.0007 2.33331 15.0007 0.333313 12.5007 0.333313C11.1673 0.333313 9.83398 1.08331 9.00065 2.24998C8.16732 1.08331 6.83398 0.333313 5.33398 0.333313C2.91732 0.333313 0.833984 2.33331 0.833984 4.83331Z" fill="#FF9601"/>
</svg>
