<svg width="244" height="244" viewBox="0 0 244 244" fill="none" xmlns="http://www.w3.org/2000/svg">
<path d="M121.809 239.798C137.739 239.798 153.191 236.679 167.734 230.528C181.783 224.585 194.403 216.078 205.24 205.24C216.077 194.404 224.585 181.784 230.527 167.734C236.679 153.191 239.798 137.739 239.798 121.809C239.798 105.879 236.679 90.4275 230.527 75.8839C224.585 61.8342 216.077 49.2157 205.24 38.3796C194.403 27.5422 181.783 19.0344 167.734 13.0918C153.191 6.94025 137.739 3.82051 121.809 3.82051C105.88 3.82051 90.4275 6.94025 75.8846 13.0918C61.8342 19.0344 49.2157 27.5422 38.3796 38.3796C27.5415 49.2157 19.0338 61.8342 13.0918 75.8839C6.94024 90.4275 3.8205 105.879 3.8205 121.809C3.8205 137.739 6.94024 153.191 13.0918 167.734C19.0338 181.784 27.5415 194.404 38.3796 205.24C49.2157 216.078 61.8342 224.585 75.8846 230.528C90.4275 236.679 105.88 239.798 121.809 239.798ZM121.809 243.619C54.5356 243.619 0 189.083 0 121.809C0 54.5363 54.5356 0 121.809 0C189.083 0 243.619 54.5363 243.619 121.809C243.619 189.083 189.083 243.619 121.809 243.619Z" fill="white"/>
<path d="M121.809 235.036C137.096 235.036 151.923 232.043 165.882 226.14C179.365 220.436 191.475 212.272 201.873 201.873C212.272 191.474 220.436 179.366 226.14 165.883C232.042 151.924 235.036 137.095 235.036 121.81C235.036 106.523 232.042 91.6963 226.14 77.7371C220.436 64.254 212.272 52.1446 201.873 41.7461C191.475 31.347 179.365 23.1824 165.882 17.4797C151.923 11.5761 137.096 8.58195 121.809 8.58195C106.523 8.58195 91.6954 11.5761 77.7362 17.4797C64.2537 23.1824 52.1443 31.347 41.7452 41.7461C31.346 52.1446 23.1821 64.254 17.4788 77.7371C11.5751 91.6963 8.58167 106.523 8.58167 121.81C8.58167 137.095 11.5751 151.924 17.4788 165.883C23.1821 179.366 31.346 191.474 41.7452 201.873C52.1443 212.272 64.2537 220.436 77.7362 226.14C91.6954 232.043 106.523 235.036 121.809 235.036ZM121.809 236.311C58.5722 236.311 7.30838 185.047 7.30838 121.81C7.30838 58.5731 58.5722 7.30933 121.809 7.30933C185.046 7.30933 236.31 58.5731 236.31 121.81C236.31 185.047 185.046 236.311 121.809 236.311Z" fill="white"/>
<path d="M47.709 104.992L45.255 119.639L39.8816 118.739L42.1763 105.04C42.282 104.407 42.1214 103.861 41.6923 103.399C41.3135 102.989 40.8012 102.73 40.1546 102.622C39.5219 102.516 38.9759 102.59 38.5144 102.845C37.9888 103.133 37.6709 103.607 37.5605 104.267L35.2658 117.966L29.5334 117.005L31.828 103.307C31.9365 102.66 31.8003 102.125 31.4188 101.699C31.036 101.275 30.5449 101.012 29.9432 100.911C29.3 100.803 28.7341 100.882 28.2442 101.146C27.6909 101.444 27.3616 101.909 27.2559 102.54L24.9599 116.238L19.5236 115.328L21.9763 100.681C22.3412 98.5031 23.4764 96.8946 25.3803 95.8567C27.1104 94.9192 29.0336 94.627 31.1511 94.982C32.0905 95.14 32.9579 95.4256 33.7538 95.8401C34.5498 96.256 35.2195 96.7829 35.7603 97.4215C36.5219 97.0162 37.3456 96.7538 38.2321 96.6335C39.1187 96.5151 40.0396 96.5363 40.9949 96.6963C43.1031 97.0493 44.8035 97.9332 46.0966 99.3486C47.5385 100.919 48.0766 102.8 47.709 104.992ZM54.3233 86.9397C52.8517 89.8823 50.9478 91.8451 48.6108 92.8275C46.7769 93.599 44.7202 93.7649 42.4414 93.326C40.9453 93.0404 39.4274 92.5121 37.8864 91.742C37.5307 91.5635 37.2808 91.4345 37.1367 91.3559C36.9939 91.2752 36.8716 91.1946 36.7691 91.1119L25.8081 85.6314L28.3883 80.4708L39.3468 85.95C41.3201 86.9357 43.1877 87.3529 44.9516 87.1989C46.9818 87.0204 48.4184 86.0895 49.2586 84.4064L53.9115 75.0994L58.9768 77.6314L54.3233 86.9397ZM73.092 62.7811L53.9815 53.5785C53.7991 53.4582 53.6186 53.4906 53.4388 53.6744C53.2689 53.8463 53.2206 54.0492 53.2927 54.2799L62.96 73.1062L58.5749 77.5752C57.9396 76.4526 56.7178 74.1798 54.9064 70.7566C53.0963 67.3347 51.4052 64.0728 49.8351 60.9762C48.0905 57.5273 47.1656 55.5618 47.0598 55.0786C46.9005 54.2033 47.0281 53.281 47.4413 52.3105C47.8558 51.3387 48.4666 50.4422 49.2752 49.6178C50.083 48.7941 50.9656 48.1694 51.9242 47.7423C52.8821 47.3159 53.7991 47.1731 54.677 47.3159C55.2026 47.3913 57.1846 48.2599 60.6256 49.9193C62.7405 50.9374 66.0195 52.5783 70.4635 54.8425C73.166 56.2176 75.4839 57.3944 77.4176 58.3728L73.092 62.7811ZM77.9227 49.6436C79.4214 50.632 80.7733 50.7893 81.9798 50.1157L92.2791 44.3654L95.0392 49.3098L83.901 55.5288C81.2262 57.0209 78.4634 57.04 75.6115 55.5836C73.053 54.2733 70.919 52.0904 69.2127 49.0328C67.4779 45.9256 66.7084 42.8839 66.9061 39.9043C67.1203 36.6054 68.5449 34.2208 71.1827 32.7472L82.3203 26.5295L85.0077 31.343L74.7097 37.0933C73.4662 37.7868 72.8566 38.9906 72.8831 40.7029C72.9075 42.2366 73.4047 43.8735 74.3752 45.6129C75.3741 47.4012 76.5562 48.7445 77.9227 49.6436ZM116.536 38.8736L117.821 44.891L100.283 41.951L101.525 47.7826L95.8835 48.9852L90.4373 23.4481L96.0791 22.2449L97.408 28.4718L112.213 18.6022L113.52 24.7247L99.5916 34.513L99.7972 35.4729L116.536 38.8736ZM155.537 29.3914L142.003 26.2664C141.391 26.1262 140.857 26.2466 140.395 26.6274C139.935 27.0075 139.632 27.5106 139.49 28.1314C139.348 28.7402 139.399 29.2975 139.64 29.8033C139.881 30.3097 140.321 30.6376 140.96 30.7844L148.934 32.6262C151.085 33.1227 152.6 34.3199 153.478 36.2193C154.269 37.9223 154.419 39.8355 153.928 41.959C153.441 44.0686 152.468 45.7226 151.006 46.9205C149.385 48.2421 147.5 48.6553 145.348 48.1575L130.835 44.807L132.085 39.3939L145.682 42.5328C146.265 42.6683 146.778 42.5341 147.222 42.1322C147.666 41.7302 147.959 41.2166 148.103 40.5925C148.247 39.9677 148.21 39.4005 147.992 38.8888C147.774 38.3784 147.359 38.0519 146.749 37.9104L138.754 36.0646C136.588 35.5648 135.059 34.3722 134.163 32.4874C133.355 30.7956 133.194 28.8982 133.68 26.7913C134.161 24.7121 135.135 23.0832 136.607 21.9031C138.255 20.5908 140.154 20.1823 142.306 20.6788L156.776 24.0193L155.537 29.3914ZM184.245 38.2165L181.102 43.6322L164.21 41.5352L163.716 42.3847L173.84 56.1436L170.752 61.4661L159.726 47.5122L156.734 52.6688L151.745 49.7725L164.852 27.1886L169.842 30.0856L166.646 35.5932L184.245 38.2165ZM183.352 65.4863C184.343 66.5487 185.445 67.1952 186.657 67.4293C188.007 67.6864 189.197 67.3347 190.227 66.3728L201.767 55.5863L205.517 59.5985L193.287 71.0283C191.084 73.0896 188.528 73.8777 185.622 73.3957C182.997 72.9634 180.644 71.6345 178.563 69.4073C176.54 67.2428 175.42 64.8768 175.203 62.3103C174.955 59.4405 175.95 56.9614 178.187 54.8716L190.416 43.4412L194.282 47.5783L182.742 58.3642C181.743 59.2964 181.342 60.4712 181.537 61.8886C181.716 63.1843 182.32 64.3829 183.352 65.4863ZM201.943 77.2605C199.964 78.2323 198.501 79.4653 197.554 80.9614C196.466 82.6862 196.336 84.3925 197.165 86.0803L201.751 95.4217L196.668 97.9167L192.083 88.5753C190.632 85.6208 190.224 82.9169 190.859 80.4629C191.357 78.5371 192.47 76.7997 194.2 75.2527C195.334 74.236 196.674 73.3481 198.22 72.5892C198.578 72.4133 198.832 72.2923 198.983 72.2275C199.132 72.1621 199.271 72.1138 199.399 72.0828L210.399 66.6829L212.943 71.8613L201.943 77.2605ZM211.501 102.288C209.324 102.636 207.563 103.386 206.22 104.539C204.674 105.868 204.05 107.461 204.348 109.318L205.991 119.594L200.399 120.487L198.756 110.213C198.236 106.963 198.64 104.258 199.966 102.099C201.007 100.402 202.581 99.0683 204.688 98.0978C206.07 97.4572 207.613 97.0024 209.313 96.7306C209.707 96.6665 209.985 96.6255 210.147 96.6077C210.31 96.5892 210.457 96.5826 210.588 96.5911L222.69 94.6554L223.601 100.353L211.501 102.288Z" fill="white"/>
<path d="M37.5102 155.604L38.2499 157.983L30.5256 160.385L29.7859 158.005L32.8474 157.054L32.1546 154.824L29.0917 155.777L28.3526 153.397L36.0769 150.994L36.8173 153.376L34.1339 154.209L34.8268 156.438L37.5102 155.604ZM40.7641 168.989L39.0003 165.174L38.084 165.597L39.6872 169.062L37.9386 169.871L36.3367 166.406L35.4211 166.829L37.2385 170.756L35.3556 171.627L32.4937 165.436L39.8353 162.041L42.6456 168.119L40.7641 168.989ZM41.8715 182.611L40.4964 180.425L41.2943 179.521L39.9258 177.342L38.755 177.651L37.4236 175.53L45.8579 173.751L47.1537 175.815L41.8715 182.611ZM44.2104 176.218L41.6837 176.882L42.4975 178.177L44.2217 176.237L44.2104 176.218ZM53.493 184.398L55.108 186.384L47.237 189.529L45.4791 187.365L50.2331 180.39L51.8197 182.342L48.8507 186.465L48.8646 186.483L53.493 184.398ZM62.6201 193.891L56.9816 195.54L54.9064 197.679L53.1168 195.945L55.192 193.805L56.7072 188.157L58.6846 190.073L57.5773 193.151L60.66 191.991L62.6201 193.891ZM75.0627 205.86L73.0755 204.594C73.2771 204.36 73.2718 204.115 73.174 203.89C73.0807 203.657 72.8712 203.457 72.6609 203.323C72.374 203.141 71.8577 202.92 71.6138 203.301C71.342 203.814 72.2504 204.54 73.045 205.421C73.841 206.304 74.5107 207.361 73.7134 208.614C72.5816 210.392 70.5818 209.925 69.0619 208.958C68.2878 208.464 66.2555 206.782 67.624 204.591L69.7276 205.929C69.6179 206.101 69.5491 206.272 69.5181 206.428C69.4083 206.935 69.8129 207.314 70.2056 207.563C70.5487 207.782 71.1483 208.001 71.471 207.495C71.6957 207.142 71.4597 206.857 70.4978 205.774C69.6113 204.781 68.5667 203.699 69.4427 202.323C70.4469 200.745 72.2273 200.925 73.6314 201.819C75.1136 202.762 76.0643 204.159 75.0627 205.86ZM85.2741 211.363C84.4352 213.135 82.8532 213.4 81.1746 212.604L79.8432 211.973L78.7947 214.184L76.5423 213.116L80.0104 205.806L83.7767 207.593C85.764 208.536 85.7699 210.319 85.2741 211.363ZM82.3765 209.223L81.3736 208.747L80.6695 210.232L81.5395 210.645C82.1226 210.922 82.7566 211.172 83.1057 210.435C83.4224 209.77 82.9298 209.486 82.3765 209.223ZM96.3099 216.54C95.5556 218.891 93.4513 220.072 91.111 219.321C88.7694 218.571 87.7446 216.386 88.4983 214.034C89.2539 211.683 91.3582 210.501 93.6985 211.251C96.0401 212.003 97.0649 214.188 96.3099 216.54ZM93.083 213.172C92.4781 212.978 91.423 213.08 90.8723 214.796C90.3223 216.511 91.1222 217.208 91.7265 217.402C92.33 217.596 93.3865 217.494 93.9372 215.778C94.4872 214.063 93.6873 213.366 93.083 213.172ZM108.364 217.191C108.219 218.017 107.685 218.82 106.818 218.977C107.442 219.351 107.724 220.162 107.639 221.17C107.603 221.568 107.445 222.518 107.604 222.925L105.149 222.491C105.097 222.067 105.126 221.647 105.165 221.228C105.233 220.458 105.305 219.654 104.335 219.482L103.03 219.251L102.539 222.029L100.085 221.595L101.493 213.63L106.168 214.455C107.562 214.703 108.631 215.685 108.364 217.191ZM104.761 216.163L103.612 215.96L103.332 217.544L104.615 217.771C105.072 217.852 105.711 217.884 105.837 217.171C105.926 216.668 105.698 216.329 104.761 216.163ZM119.05 217.711L116.788 217.594L116.477 223.602L113.988 223.474L114.299 217.465L112.035 217.348L112.142 215.278L119.157 215.64L119.05 217.711ZM126.744 223.633C125.828 223.696 123.194 223.549 122.993 220.973L125.48 220.801C125.494 221.005 125.541 221.183 125.607 221.326C125.821 221.8 126.371 221.864 126.836 221.833C127.242 221.805 127.854 221.626 127.814 221.027C127.784 220.608 127.426 220.519 126.008 220.22C124.706 219.946 123.223 219.696 123.111 218.068C122.982 216.203 124.52 215.29 126.182 215.175C127.935 215.055 129.53 215.615 129.733 217.576L127.381 217.74C127.406 217.431 127.257 217.237 127.043 217.115C126.83 216.982 126.543 216.945 126.295 216.963C125.956 216.985 125.408 217.115 125.439 217.566C125.525 218.14 126.686 218.185 127.85 218.422C129.013 218.661 130.18 219.113 130.283 220.595C130.427 222.697 128.541 223.51 126.744 223.633ZM147.568 219.682L143.97 216.112L143.949 216.118L145.161 220.37L142.894 221.015L140.676 213.234L143.127 212.536L146.581 216.052L146.603 216.046L145.415 211.882L147.682 211.236L149.901 219.018L147.568 219.682ZM158.452 215.881C156.189 216.872 154.637 216.377 153.738 214.322L151.747 209.778L154.03 208.779L155.798 212.815C156.129 213.573 156.543 214.516 157.654 214.031C158.732 213.558 158.319 212.614 157.987 211.856L156.219 207.819L158.502 206.819L160.493 211.363C161.393 213.418 160.714 214.891 158.452 215.881ZM170.283 209.452L168.148 210.739L165.044 205.584L163.102 206.754L162.033 204.977L168.05 201.354L169.12 203.129L167.179 204.299L170.283 209.452ZM180.331 202.285C179.982 202.041 179.686 201.74 179.4 201.432C178.87 200.87 178.318 200.281 177.543 200.89L176.504 201.712L178.251 203.927L176.295 205.471L171.283 199.122L175.009 196.181C176.121 195.303 177.567 195.159 178.514 196.359C179.033 197.017 179.278 197.95 178.817 198.702C179.513 198.485 180.306 198.813 181.001 199.549C181.274 199.838 181.879 200.587 182.288 200.74L180.331 202.285ZM176.816 198.233C176.502 197.832 176.096 197.776 175.349 198.366L174.432 199.088L175.43 200.351L176.451 199.545C176.816 199.257 177.265 198.801 176.816 198.233ZM185.73 197.517L180.079 191.727L181.864 189.987L187.515 195.776L185.73 197.517ZM194.008 188.576L192.41 190.489L187.793 186.631L186.34 188.369L184.748 187.04L189.254 181.649L190.845 182.979L189.392 184.718L194.008 188.576ZM198.345 182.817L191.645 178.283L193.042 176.219L199.742 180.754L198.345 182.817ZM204.571 172.934C203.426 175.108 201.096 175.738 198.912 174.586C196.727 173.436 195.929 171.158 197.075 168.984C198.22 166.809 200.55 166.18 202.734 167.33C204.919 168.482 205.717 170.759 204.571 172.934ZM201.573 169.536C199.979 168.696 199.153 169.362 198.859 169.924C198.563 170.484 198.479 171.542 200.073 172.382C201.666 173.222 202.492 172.555 202.788 171.994C203.084 171.432 203.166 170.375 201.573 169.536ZM210.039 159.91L205.039 160.732L205.031 160.754L209.184 162.263L208.378 164.478L200.776 161.715L201.647 159.319L206.519 158.583L206.527 158.561L202.46 157.083L203.265 154.869L210.866 157.632L210.039 159.91Z" fill="white"/>
<path d="M186.246 144.473C182.108 140.477 181.909 135.631 183.296 130.122C183.85 127.929 184.956 112.085 184.956 111.525C184.956 108.755 185.122 103.214 184.734 100.637C183.083 89.6607 180.322 87.2014 174.025 80.9051C168.082 74.9618 159.815 70.9641 151.859 68.0737C149.463 67.2031 146.984 66.5638 144.533 65.8551C136.728 63.5987 128.1 63.1842 121.748 63.1498H121.743C115.391 63.1842 106.764 63.5987 98.9578 65.8551C96.5077 66.5638 94.0279 67.2031 91.6321 68.0737C83.6764 70.9641 75.4093 74.9618 69.466 80.9051C63.1697 87.2014 60.4083 89.6607 58.7568 100.637C58.3694 103.214 59.6414 127.929 60.1941 130.122C61.5831 135.631 61.3827 140.477 57.2449 144.473C55.9875 145.688 55.9829 146.843 56.5957 148.293C57.6303 150.737 58.1797 156.176 59.6156 158.406C61.1732 160.826 64.6129 163.146 66.023 164.064C66.6405 164.466 69.0204 165.756 69.5976 166.009C70.5231 166.415 78.1284 167.277 79.2074 167.277C80.203 167.277 91.1264 168.451 91.1264 173.658C91.1264 176.941 90.6352 177.606 91.3412 180.87C91.6063 182.097 93.1361 187.723 93.0548 187.998C92.9979 188.189 92.9874 190.544 92.9801 190.743C92.9576 191.349 92.9715 191.966 93.148 192.546C93.3245 193.127 93.6802 193.673 94.2097 193.97C94.8404 194.324 96.0674 194.281 96.788 194.215C97.0717 194.19 97.3705 194.157 97.6005 193.989C97.74 193.887 97.857 190.434 98.0111 188.756C98.0825 187.977 98.2583 188.298 98.2749 188.219C98.2854 188.252 98.4864 188.031 98.5697 188.832C98.735 190.415 98.8388 193.57 98.8897 193.615C99.0444 193.751 99.2665 193.771 99.4728 193.784C99.9488 193.815 100.753 193.84 101.178 193.624C101.364 193.53 101.526 193.394 101.711 193.296C102.117 193.084 102.288 193.077 102.735 192.973C102.873 192.941 103.013 192.897 103.117 192.802C103.233 192.695 103.289 192.539 103.32 192.385C103.379 192.097 103.455 191.793 103.368 191.512C103.334 191.405 103.186 188.661 103.217 187.156C103.235 186.258 103.447 186.309 103.425 186.219C103.466 186.362 103.556 186.319 103.662 187.181C103.852 188.745 104.093 191.596 104.186 191.952C104.224 192.092 104.169 192.251 104.241 192.379C104.343 192.561 104.584 192.631 104.796 192.609C105.008 192.586 105.203 192.491 105.401 192.413C105.901 192.215 106.137 192.126 106.676 192.151C107.2 192.176 107.456 192.3 107.914 192.052C108.338 191.823 108.541 191.323 108.552 190.852C108.556 190.682 108.495 188.302 108.575 187.028C108.632 186.114 108.847 186.203 108.818 186.083C108.864 186.076 108.899 186.496 108.908 186.572C108.973 187.097 109.387 191.289 109.791 191.632C110.193 191.972 110.768 191.985 111.295 191.981C112.017 191.975 112.122 191.97 112.844 191.964C113.06 191.962 113.281 191.96 113.485 191.886C113.681 191.816 113.85 191.685 113.995 191.535C114.375 191.141 114.611 187.806 114.821 186.14C114.917 185.376 115.104 185.784 115.126 185.529C115.132 185.689 115.296 185.437 115.354 186.242C115.458 187.65 115.481 190.399 115.501 190.678C115.517 190.895 115.545 191.132 115.708 191.279C115.814 191.374 115.959 191.415 116.1 191.439C117.17 191.624 118.567 191.069 119.642 191.226C120.085 191.291 120.525 191.476 120.965 191.393C121.272 191.335 121.352 188.289 121.474 186.572C121.538 185.67 121.712 185.597 121.723 185.519C121.979 185.282 121.895 186.398 121.906 186.673C121.938 186.9 122.058 191.305 122.527 191.393C122.966 191.476 123.407 191.291 123.85 191.226C124.924 191.069 126.321 191.624 127.391 191.439C127.533 191.415 127.678 191.374 127.783 191.279C127.946 191.132 127.974 190.895 127.99 190.678C128.01 190.403 127.999 187.77 128.101 186.369C128.162 185.541 128.36 185.692 128.366 185.529C128.388 185.79 128.455 185.533 128.555 186.318C128.766 187.98 129.12 191.145 129.496 191.535C129.641 191.685 129.81 191.816 130.006 191.886C130.211 191.96 130.432 191.962 130.648 191.964C131.37 191.97 131.475 191.975 132.197 191.981C132.723 191.985 133.299 191.972 133.7 191.632C133.949 191.421 134.122 188.4 134.323 186.851C134.447 185.885 134.655 186.08 134.673 186.083C134.646 186.197 134.682 185.982 134.736 186.851C134.816 188.146 134.935 190.677 134.939 190.852C134.95 191.323 135.153 191.823 135.578 192.052C136.036 192.3 136.292 192.176 136.815 192.151C137.354 192.126 137.591 192.215 138.09 192.413C138.288 192.491 138.483 192.586 138.695 192.609C138.908 192.631 139.149 192.561 139.251 192.379C139.323 192.251 139.267 192.092 139.304 191.952C139.391 191.626 139.6 188.734 139.781 187.232C139.906 186.191 140.018 186.384 140.066 186.219C140.042 186.32 140.216 186.283 140.239 187.334C140.27 188.775 140.154 191.413 140.124 191.512C140.036 191.793 140.113 192.097 140.171 192.385C140.202 192.539 140.258 192.695 140.374 192.802C140.478 192.897 140.618 192.941 140.756 192.973C141.203 193.077 141.375 193.084 141.781 193.296C141.965 193.394 142.127 193.53 142.313 193.624C142.739 193.84 143.542 193.815 144.018 193.784C144.225 193.771 144.447 193.751 144.602 193.615C144.652 193.571 144.772 190.666 144.937 189.086C145.025 188.242 145.205 188.252 145.216 188.219C145.234 188.301 145.445 188.082 145.52 188.908C145.675 190.585 145.754 193.889 145.891 193.989C146.121 194.157 146.42 194.19 146.703 194.215C147.424 194.281 148.651 194.324 149.282 193.97C149.811 193.673 150.167 193.127 150.344 192.546C150.52 191.966 150.534 191.349 150.512 190.743C150.505 190.544 150.493 188.189 150.437 187.998C150.356 187.723 151.885 182.097 152.151 180.87C152.857 177.606 152.365 176.941 152.365 173.658C152.365 168.451 163.083 167.277 164.284 167.277C165.399 167.277 172.968 166.415 173.894 166.009C174.471 165.756 176.851 164.466 177.468 164.064C178.878 163.146 182.142 160.902 183.876 158.406C185.389 156.228 185.861 150.737 186.896 148.293C187.508 146.843 187.504 145.688 186.246 144.473ZM130.656 165.974C130.508 166.85 129.65 167.958 128.846 168.292C127.677 168.774 126.343 168.476 125.453 167.242C124.827 166.375 124.069 165.604 123.397 164.769C121.86 162.858 121.558 162.872 120.095 164.769C119.439 165.617 118.664 166.374 118.038 167.242C117.149 168.476 115.814 168.774 114.646 168.292C113.841 167.958 112.984 166.85 112.836 165.974C111.687 159.134 112.788 152.574 116.104 146.508C117.237 144.434 118.002 141.763 120.596 140.683C120.97 140.527 121.358 140.423 121.745 140.369C122.133 140.422 122.521 140.527 122.895 140.683C125.146 141.62 126.597 144.881 127.387 146.326C130.703 152.393 131.805 159.134 130.656 165.974ZM125.896 138.079C125.896 137.169 128.408 134.821 131.289 135.837C132.309 136.198 135.942 136.143 136.712 136.05C137.985 135.895 139.516 135.308 140.472 134.661C144.166 132.161 143.933 131.477 147.232 128.497C151.263 124.856 154.804 120.676 158.702 116.879C160.348 115.274 162.262 113.873 164.249 112.713C165.679 111.878 170.752 111.423 172.402 111.112C174.278 110.758 175.857 111.606 175.776 113.546C175.681 115.798 175.541 118.111 174.945 120.266C173.178 126.664 171.777 134.333 168.129 139.903C167.754 140.476 165.821 142.342 165.224 142.715C162.178 144.623 159.435 146.421 156.025 147.282C155.559 147.4 152.844 145.9 152.218 145.65C147.295 143.683 144.362 143.468 139.104 143.008C138.196 142.928 129.932 140.575 125.896 138.079ZM117.595 138.079C113.558 140.575 105.295 142.928 104.386 143.008C99.1297 143.468 96.1964 143.683 91.2731 145.65C90.6471 145.9 87.9326 147.4 87.4665 147.282C84.0559 146.421 81.3136 144.623 78.2673 142.715C77.6703 142.342 75.7379 140.476 75.3624 139.903C71.7144 134.333 70.3129 126.664 68.5458 120.266C67.9508 118.111 67.8106 115.798 67.7154 113.546C67.6341 111.606 69.2135 110.758 71.0897 111.112C72.7391 111.423 77.8124 111.878 79.2424 112.713C81.229 113.873 83.1429 115.274 84.7904 116.879C88.6876 120.676 92.2278 124.856 96.2592 128.497C99.5581 131.477 99.3253 132.161 103.019 134.661C103.975 135.308 105.507 135.895 106.779 136.05C107.549 136.143 111.182 136.198 112.202 135.837C115.084 134.821 117.595 137.272 117.595 138.079Z" fill="white"/>
<path d="M207.479 122.466V120.035H206.609V119.592H208.854V120.035H207.984V122.466H207.479Z" fill="white"/>
<path d="M211.763 122.466V120.247L210.884 122.466H210.669L209.786 120.247V122.466H209.282V119.592H209.993L210.777 121.565L211.556 119.592H212.267V122.466H211.763Z" fill="white"/>
</svg>
