<svg width="182" height="124" viewBox="0 0 182 124" fill="none" xmlns="http://www.w3.org/2000/svg">
<path d="M91.0142 34.7479C86.7867 34.752 83.2657 34.7759 79.7735 35.3126C77.3085 35.691 74.9037 36.2788 72.696 37.4907C70.2574 38.8295 68.475 40.7479 67.8551 43.5088C66.9119 47.7108 67.6613 51.6342 70.1618 55.1634C72.1123 57.9161 74.8023 59.7521 77.8543 61.0925C81.0917 62.5146 84.4981 63.2475 88.0151 63.5039C92.795 63.8527 97.4941 63.4627 102.056 61.9186C105.68 60.6927 108.937 58.8642 111.37 55.8337C114.234 52.2665 115.162 48.1807 114.243 43.7281C113.555 40.395 111.307 38.3167 108.303 36.9705C105.544 35.7347 102.603 35.2722 99.621 34.9993C96.5221 34.7157 93.4141 34.7611 91.0142 34.7479ZM86.593 5.34058e-05C87.3786 0.31662 87.9986 0.784058 88.1816 1.67689C88.2459 1.99016 88.2813 2.30756 88.1494 2.5928C87.973 2.97368 88.0876 3.26057 88.2888 3.58951C90.2459 6.78902 91.3391 10.2828 91.7793 13.9918C91.9104 15.099 91.8947 15.1007 92.9953 15.1468C97.7117 15.3455 102.331 16.0471 106.708 17.9102C114.763 21.3389 119.55 27.4132 121.19 35.9754C122.034 40.381 121.958 44.7899 121.005 49.1783C120.988 49.2607 120.985 49.3464 120.971 49.4627C121.199 49.4396 121.319 49.2863 121.457 49.1791C123.951 47.231 125.914 44.8221 127.578 42.151C127.713 41.9342 127.704 41.7677 127.603 41.5377C127.203 40.6374 127.406 39.7166 128.11 39.0859C128.781 38.4841 129.775 38.3868 130.565 38.846C131.35 39.3019 131.739 40.1914 131.553 41.104C131.375 41.9796 130.654 42.658 129.717 42.7405C129.389 42.7693 129.283 42.9458 129.147 43.1659C127.231 46.2599 124.938 49.0158 121.964 51.1593C121.88 51.2203 121.803 51.2978 121.71 51.3374C120.452 51.8757 119.898 52.9252 119.37 54.137C116.62 60.4421 111.779 64.5122 105.404 66.8634C102.115 68.0769 98.6985 68.701 95.2096 68.9714C91.6878 69.2451 88.1725 69.1989 84.6696 68.7513C78.9656 68.0225 73.635 66.3184 69.0917 62.635C65.8377 59.9969 63.5451 56.6671 62.09 52.752C61.9738 52.4388 61.8023 52.2434 61.5162 52.0769C58.4643 50.2896 56.0892 47.7908 54.0661 44.9309C53.6481 44.3398 53.2598 43.7273 52.8732 43.1156C52.7388 42.9029 52.6151 42.7718 52.3258 42.7421C51.3703 42.644 50.6621 41.968 50.475 41.0496C50.2969 40.1807 50.7347 39.259 51.5335 38.8188C52.3109 38.3901 53.2763 38.4981 53.9441 39.0875C54.6283 39.691 54.8385 40.6704 54.4461 41.5434C54.3554 41.7471 54.3117 41.893 54.4445 42.1065C56.1395 44.8419 58.1461 47.3019 60.7124 49.2755C60.794 49.3382 60.8781 49.3992 60.9655 49.4553C60.9919 49.4726 61.0306 49.4701 61.0991 49.4833C60.7949 48.109 60.5541 46.7372 60.442 45.3481C59.8855 38.461 60.8732 31.9177 64.9095 26.1098C68.0307 21.6176 72.3909 18.7998 77.5179 17.0883C80.9095 15.9556 84.4075 15.3974 87.9714 15.212C88.5394 15.1831 89.1082 15.1485 89.6779 15.1336C89.9038 15.1279 90.0225 15.0965 89.9912 14.8187C89.5806 11.1988 88.616 7.75853 86.7257 4.61095C86.5534 4.32323 86.3943 4.18803 86.0126 4.1806C84.9821 4.15917 84.2063 3.40979 84.0365 2.39165C83.8815 1.4609 84.4503 0.507057 85.3869 0.125359C85.48 0.0874405 85.5699 0.042099 85.6606 5.34058e-05H86.593Z" fill="#9701CE"/>
<path d="M0 77.1429C0.258863 76.9525 0.558122 77.0119 0.845015 77.0127C5.9184 77.0201 10.9926 77.0531 16.066 77.03C18.93 77.0176 21.7907 76.8635 24.639 76.542C25.4065 76.4546 25.5903 76.6244 25.6019 77.3944C25.6274 79.2402 25.7124 81.0836 25.8377 82.9253C25.8591 83.2452 25.8236 83.4587 25.4296 83.4793C23.4823 83.584 21.5615 83.9253 19.6266 84.1405C19.0099 84.2097 18.3966 84.3276 17.7783 84.3622C17.3875 84.3837 17.3051 84.5255 17.3059 84.894C17.3199 88.6722 17.3141 92.4505 17.3141 96.2287C17.3141 100.438 17.315 104.648 17.3141 108.858C17.3141 109.498 17.094 109.685 16.4708 109.57C14.3595 109.181 12.2408 109.368 10.1229 109.489C9.52022 109.524 8.91511 109.526 8.31412 109.576C7.94891 109.606 7.84091 109.498 7.86729 109.125C7.99755 107.267 8.11049 105.408 8.21354 103.548C8.34627 101.137 8.49219 98.7267 8.57958 96.3136C8.68015 93.5387 8.72055 90.7613 8.7931 87.9855C8.81371 87.204 8.71808 86.4381 8.56309 85.6755C8.50621 85.3944 8.39244 85.2848 8.08411 85.2872C5.57957 85.3054 3.08327 85.4249 0.605937 85.8124C0.304205 85.8594 0.13108 85.7769 0 85.5304V77.1429Z" fill="#9701CE"/>
<path d="M81.3826 96.0591C81.9119 93.5851 82.4403 91.1152 82.9704 88.6452C83.7907 84.8225 84.62 81.0014 85.4222 77.1753C85.5046 76.7829 85.6464 76.6848 86.0289 76.6922C89.2903 76.754 92.5525 76.8068 95.8138 76.8307C96.2854 76.8348 96.376 76.97 96.367 77.416C96.2219 84.3163 96.0133 91.2157 96.0191 98.1176C96.0232 102.19 96.057 106.262 96.2268 110.331C96.2458 110.785 96.1337 110.896 95.6802 110.926C93.6143 111.06 91.5516 111.234 89.4898 111.42C89.0504 111.46 88.9523 111.331 88.9465 110.903C88.8665 104.71 88.7668 98.5167 88.672 92.3229C88.6703 92.2025 88.672 92.083 88.5895 91.9486C88.3768 92.9363 88.1551 93.9222 87.9531 94.9124C87.1336 98.9297 86.2886 102.941 85.6044 106.985C85.4568 107.86 85.4436 107.871 84.5747 107.796C82.0232 107.577 79.4733 107.555 76.9292 107.877C76.5021 107.931 76.5367 107.638 76.4799 107.416C75.2226 102.512 73.9728 97.6057 72.7206 92.7005C72.6794 92.5373 72.6324 92.3748 72.559 92.1028C72.0413 94.9346 71.4848 97.6387 70.7486 100.304C69.7255 104.011 68.5722 107.669 66.8055 111.105C66.3636 111.964 65.8805 112.799 65.296 113.572C65.0998 113.832 64.9563 113.924 64.6389 113.712C63.8623 113.195 62.9992 112.836 62.1468 112.462C60.7057 111.831 59.446 110.948 58.3578 109.81C58.1261 109.568 58.1006 109.4 58.2531 109.104C60.0454 105.629 61.8236 102.147 63.2383 98.4927C65.5746 92.4565 67.1122 86.2157 68.0347 79.8167C68.0981 79.3773 67.9827 78.7928 68.2704 78.5372C68.5829 78.2594 69.1624 78.4111 69.6258 78.4078C72.1353 78.388 74.6109 78.031 77.0792 77.6262C77.4741 77.5611 77.573 77.6518 77.6447 78.0145C78.5821 82.7277 79.5343 87.4383 80.4815 92.1498C80.7255 93.3658 80.9687 94.5818 81.2119 95.7978C81.2317 95.8967 81.2293 96.0096 81.3826 96.0591Z" fill="#9701CE"/>
<path d="M39.4088 76.574C40.8564 76.6713 42.3156 76.7661 43.7748 76.8683C45.478 76.9887 47.1804 77.1338 48.8853 77.2294C49.286 77.2516 49.4286 77.3885 49.5366 77.7619C50.6025 81.4676 51.6907 85.1676 52.7773 88.8683C52.8235 89.0266 52.8128 89.2179 53.0189 89.3621C53.7509 87.0497 54.4855 84.7587 55.1994 82.4619C55.7724 80.6202 56.3255 78.7727 56.8713 76.9235C56.9636 76.6119 57.0922 76.4932 57.436 76.5023C59.8342 76.5641 62.2324 76.6004 64.6314 76.649C65.1739 76.6597 65.3058 76.8081 65.1409 77.2393C62.5514 83.9911 60.2299 90.842 57.6784 97.607C56.2786 101.318 54.5341 104.875 52.572 108.326C48.6157 115.284 42.7105 119.76 35.1045 122.073C32.3914 122.897 29.6091 123.411 26.7805 123.594C24.7706 123.723 24.8885 123.68 25.1886 121.999C25.5975 119.704 25.6635 117.409 25.5728 115.098C25.5571 114.699 25.6354 114.572 26.0823 114.671C27.567 115 29.0674 114.882 30.5637 114.734C32.6618 114.526 34.7385 114.216 36.7187 113.45C40.2793 112.074 42.9224 109.655 44.7377 106.32C45.6272 104.686 46.5011 103.044 46.7278 101.146C46.9966 98.9055 46.7468 96.7101 46.2488 94.527C45.6025 91.6911 44.4162 89.0448 43.3684 86.3514C42.1384 83.1907 40.9438 80.0142 39.4854 76.9474C39.4376 76.8452 39.3436 76.7446 39.4088 76.574Z" fill="#9701CE"/>
<path d="M128.627 97.7158C128.338 101.736 128.33 105.739 128.32 109.741C128.317 110.689 128.306 111.638 128.319 112.587C128.323 112.868 128.256 112.979 127.949 112.977C126.051 112.964 124.152 112.959 122.254 112.98C121.861 112.984 121.9 112.781 121.908 112.53C121.993 109.875 122.09 107.22 122.155 104.564C122.238 101.149 122.293 97.7348 122.366 94.3201C122.467 89.5245 122.431 84.7282 122.422 79.9318C122.421 79.4965 122.506 79.3827 122.959 79.4454C125.537 79.804 128.119 80.1379 130.702 80.4561C131.133 80.5089 131.336 80.6548 131.459 81.0991C133.112 87.109 134.967 93.0579 136.94 98.9706C136.977 99.0819 137.021 99.1899 137.11 99.4281C137.11 98.6589 137.123 98.0225 137.108 97.3869C137.016 93.6969 136.917 90.006 136.823 86.316C136.748 83.3844 136.686 80.4528 136.597 77.5212C136.584 77.1041 136.642 76.9351 137.127 76.9021C138.846 76.785 140.563 76.6086 142.278 76.433C142.662 76.3934 142.777 76.4676 142.762 76.8823C142.452 85.2459 142.48 93.6128 142.563 101.98C142.586 104.309 142.607 106.638 142.635 108.966C142.639 109.248 142.644 109.438 142.246 109.449C139.073 109.539 135.9 109.647 132.728 109.774C132.321 109.791 132.172 109.657 132.062 109.281C130.968 105.548 129.856 101.82 128.749 98.0901C128.711 97.964 128.668 97.8403 128.627 97.7158Z" fill="#9701CE"/>
<path d="M169.866 103.655C169.707 104.899 169.557 106.092 169.405 107.286C169.392 107.389 169.374 107.491 169.364 107.594C169.251 108.782 169.244 108.782 168.093 109.136C166.211 109.716 164.319 109.757 162.44 109.165C159.513 108.244 157.745 106.209 157.275 103.223C156.787 100.117 157.919 97.5623 160.577 95.8368C163.646 93.8467 166.93 92.23 170.165 90.5309C170.524 90.3413 170.664 90.1517 170.625 89.7403C170.51 88.5185 170.318 87.3133 169.978 86.1335C169.838 85.6488 169.613 85.2028 169.264 84.831C168.336 83.8433 166.895 84.1286 166.444 85.4048C166.064 86.4757 166.139 87.5828 166.315 88.6777C166.382 89.0907 166.332 89.216 165.876 89.1698C164.059 88.9852 162.214 88.9052 160.529 88.1088C158.57 87.183 158.81 87.5276 158.984 85.4922C159.106 84.0857 159.538 82.7658 160.168 81.5029C161.05 79.7353 162.438 78.5688 164.329 78.0329C166.66 77.3726 169.008 77.2036 171.359 77.9645C174.686 79.042 176.486 81.4641 177.327 84.7329C177.569 85.6719 177.702 86.6232 177.733 87.5927C177.844 91.0668 177.536 94.5219 177.28 97.9794C177.092 100.527 176.963 103.079 177.222 105.628C177.414 107.525 178.399 108.559 180.295 108.827C180.834 108.904 181.021 109.106 181.109 109.629C181.359 111.106 181.674 112.572 181.978 114.04C182.045 114.368 181.967 114.514 181.632 114.635C177.404 116.155 171.479 113.306 171.097 107.668C170.866 104.25 171.008 100.839 171.017 97.4246C171.02 96.6233 171.035 96.742 170.363 96.9283C168.597 97.418 166.876 98.0165 165.347 99.0676C164.485 99.6604 163.813 100.391 163.512 101.424C163.091 102.871 163.912 104.131 165.419 104.274C166.76 104.4 168.063 104.126 169.354 103.799C169.504 103.761 169.651 103.715 169.866 103.655Z" fill="#9701CE"/>
<path d="M111.488 101.737C111.488 101.03 111.48 100.324 111.493 99.618C111.497 99.3707 111.413 99.2858 111.165 99.299C109.476 99.3889 107.797 99.5339 106.199 100.147C105.501 100.415 104.859 100.783 104.418 101.418C103.864 102.216 103.887 102.929 104.496 103.63C104.983 104.191 105.635 104.451 106.342 104.58C107.986 104.882 109.598 104.635 111.202 104.262C111.471 104.198 111.494 104.03 111.492 103.804C111.484 103.115 111.488 102.426 111.488 101.737ZM105.146 93.9511C103.165 93.1308 101.3 92.2866 99.4736 91.3591C99.3269 91.285 99.2205 91.2075 99.2205 91.0162C99.2222 89.0112 99.5404 87.0929 100.805 85.4539C101.979 83.9337 103.613 83.2 105.454 82.909C108.264 82.4647 111.036 82.6056 113.672 83.7771C116.507 85.0376 118.447 87.0722 118.972 90.2388C119.215 91.6955 119.094 93.1662 119.071 94.6304C119.028 97.2528 118.972 99.8744 118.908 102.497C118.866 104.222 118.795 105.945 118.753 107.67C118.744 108.048 118.62 108.219 118.229 108.335C113.94 109.613 109.574 110.02 105.128 109.54C103.909 109.408 102.709 109.166 101.587 108.639C99.6253 107.719 98.5701 106.195 98.4786 104.018C98.3565 101.146 99.5008 98.8942 101.823 97.2372C103.779 95.8414 106.014 95.1819 108.363 94.8513C109.253 94.726 110.148 94.6634 111.047 94.6609C111.231 94.6601 111.383 94.6609 111.394 94.4061C111.449 93.0978 111.583 91.7862 111.235 90.4952C111.185 90.313 111.116 90.1349 111.041 89.9618C110.172 87.9527 107.775 87.6633 106.444 89.4045C105.598 90.5117 105.202 91.7747 105.148 93.1539C105.139 93.3938 105.146 93.6345 105.146 93.9511Z" fill="#9701CE"/>
<path d="M36.4754 96.0215C36.4976 95.4783 36.4449 94.7041 36.3229 93.9374C36.2421 93.4271 36.1069 92.93 35.9412 92.4387C34.7837 89.0108 30.6106 89.057 28.9181 91.0331C28.3146 91.7371 27.8505 92.5162 27.552 93.3859C26.6081 96.1436 26.3558 98.9746 26.8422 101.844C27.4234 105.274 30.8521 106.512 33.5842 104.322C34.2841 103.761 34.7961 103.053 35.1959 102.261C36.1489 100.373 36.4762 98.3488 36.4754 96.0215ZM42.1497 96.1938C42.1036 99.5005 41.4605 102.876 39.6015 105.956C36.5364 111.035 31.2882 112.314 26.7713 111.31C23.782 110.646 22.1827 108.565 21.444 105.719C20.8867 103.571 20.8875 101.383 21.0326 99.1906C21.2354 96.137 21.8422 93.1815 23.2948 90.4519C24.5685 88.0586 26.3278 86.1749 28.9634 85.2894C31.4679 84.4485 34.0005 84.4766 36.477 85.3653C39.3402 86.3933 40.8777 88.6159 41.6345 91.456C42.0277 92.9317 42.153 94.442 42.1497 96.1938Z" fill="#9701CE"/>
<path d="M146.187 98.692C146.108 95.8816 146.037 93.0704 145.94 90.26C145.924 89.8082 146.008 89.6466 146.509 89.6631C148.665 89.734 150.821 89.7719 152.979 89.786C153.43 89.7884 153.568 89.922 153.587 90.3598C153.679 92.4966 153.801 94.6318 153.909 96.7678C154.088 100.265 154.257 103.762 154.454 107.258C154.481 107.721 154.366 107.832 153.905 107.827C151.593 107.802 149.28 107.803 146.967 107.826C146.524 107.831 146.435 107.694 146.426 107.279C146.36 104.417 146.266 101.554 146.181 98.692H146.187Z" fill="#9701CE"/>
<path d="M150.506 79.4262C151.044 79.4089 151.575 79.4633 152.097 79.5869C153.862 80.0066 154.844 81.1756 154.956 82.9835C155.13 85.7873 153.655 87.4979 150.811 87.8063C149.966 87.8978 149.123 87.9266 148.284 87.7848C146.228 87.4369 145.133 86.1146 145.033 83.8763C144.937 81.718 146.224 80.1657 148.557 79.6397C149.197 79.4946 149.847 79.4081 150.506 79.4262Z" fill="#9701CE"/>
<path d="M81.7243 48.6689C81.6913 49.7884 81.3557 50.8313 80.5264 51.673C79.1636 53.0564 77.0927 52.9682 75.8388 51.4809C74.5824 49.9912 74.4901 47.7002 75.622 46.1017C76.9979 44.1586 79.5552 44.1619 80.9287 46.1083C81.4613 46.8634 81.6987 47.7126 81.7243 48.6689Z" fill="#9701CE"/>
<path d="M100.346 48.6449C100.342 47.4915 100.704 46.4726 101.511 45.6391C102.799 44.3102 104.733 44.3126 106.031 45.6267C107.598 47.2121 107.61 50.0431 106.058 51.6424C104.709 53.0332 102.69 52.9895 101.397 51.5418C100.704 50.7653 100.347 49.7809 100.346 48.6449Z" fill="#9701CE"/>
</svg>
