<svg width="25" height="24" viewBox="0 0 25 24" fill="none" xmlns="http://www.w3.org/2000/svg">
<path d="M19.1638 23.0371C17.8716 24.3036 16.4606 24.1036 15.1024 23.5037C13.6651 22.8904 12.3464 22.8638 10.83 23.5037C8.93114 24.3303 7.92897 24.0903 6.79493 23.0371C0.359941 16.3313 1.30937 6.11923 8.61466 5.74594C10.3948 5.83926 11.6344 6.73248 12.6761 6.81247C14.2321 6.49251 15.7222 5.57263 17.3837 5.69261C19.3748 5.85259 20.8781 6.65249 21.8671 8.09231C17.7529 10.5853 18.7287 16.0646 22.5 17.5978C21.7484 19.5975 20.7726 21.5839 19.1506 23.0504L19.1638 23.0371ZM12.5442 5.66595C12.3464 2.69299 14.7332 0.23997 17.476 0C17.8584 3.43957 14.3903 5.99924 12.5442 5.66595Z" fill="#0B0B0B"/>
</svg>
