<svg width="25" height="25" viewBox="0 0 25 25" fill="none" xmlns="http://www.w3.org/2000/svg">
<path d="M10.5 3.16821H4.5C3.94772 3.16821 3.5 3.61593 3.5 4.16821V20.1682C3.5 20.7205 3.94772 21.1682 4.5 21.1682H10.5C11.0523 21.1682 11.5 20.7205 11.5 20.1682V4.16821C11.5 3.61593 11.0523 3.16821 10.5 3.16821Z" stroke="#FF9601" stroke-width="2" stroke-linecap="round" stroke-linejoin="round"/>
<path d="M7.5 3.16821V21.1682" stroke="#FF9601" stroke-width="2" stroke-linecap="round" stroke-linejoin="round"/>
<path d="M20.8998 19.0682C21.0998 19.5682 20.7998 20.1682 20.2998 20.3682L18.3998 21.0682C17.8998 21.2682 17.2998 20.9682 17.0998 20.4682L11.5998 5.26821C11.3998 4.76821 11.6998 4.16821 12.1998 3.96821L14.0998 3.26821C14.5998 3.06821 15.1998 3.36821 15.3998 3.86821L20.8998 19.0682Z" stroke="#FF9601" stroke-width="2" stroke-linecap="round" stroke-linejoin="round"/>
</svg>
