<svg width="25" height="24" viewBox="0 0 25 24" fill="none" xmlns="http://www.w3.org/2000/svg">
<path d="M11.5 21.73C11.804 21.9056 12.1489 21.998 12.5 21.998C12.8511 21.998 13.196 21.9056 13.5 21.73L20.5 17.73C20.8037 17.5547 21.056 17.3025 21.2315 16.9989C21.4071 16.6952 21.4996 16.3508 21.5 16V8.00002C21.4996 7.6493 21.4071 7.30483 21.2315 7.00119C21.056 6.69754 20.8037 6.44539 20.5 6.27002L13.5 2.27002C13.196 2.09449 12.8511 2.00208 12.5 2.00208C12.1489 2.00208 11.804 2.09449 11.5 2.27002L4.5 6.27002C4.19626 6.44539 3.94398 6.69754 3.76846 7.00119C3.59294 7.30483 3.50036 7.6493 3.5 8.00002V16C3.50036 16.3508 3.59294 16.6952 3.76846 16.9989C3.94398 17.3025 4.19626 17.5547 4.5 17.73L11.5 21.73Z" stroke="#FF9601" stroke-width="1.5" stroke-linecap="round" stroke-linejoin="round"/>
<path d="M12.5 22V12" stroke="#FF9601" stroke-width="1.5" stroke-linecap="round" stroke-linejoin="round"/>
<path d="M3.78906 7L12.4991 12L21.2091 7" stroke="#FF9601" stroke-width="1.5" stroke-linecap="round" stroke-linejoin="round"/>
<path d="M8 4.27002L17 9.42002" stroke="#FF9601" stroke-width="1.5" stroke-linecap="round" stroke-linejoin="round"/>
</svg>
