<svg width="24" height="25" viewBox="0 0 24 25" fill="none" xmlns="http://www.w3.org/2000/svg">
<path d="M3 3.57129H21C21.2652 3.57129 21.5196 3.67665 21.7071 3.86418C21.8946 4.05172 22 4.30607 22 4.57129V20.5713C22 20.8365 21.8946 21.0909 21.7071 21.2784C21.5196 21.4659 21.2652 21.5713 21 21.5713H3C2.73478 21.5713 2.48043 21.4659 2.29289 21.2784C2.10536 21.0909 2 20.8365 2 20.5713V4.57129C2 4.30607 2.10536 4.05172 2.29289 3.86418C2.48043 3.67665 2.73478 3.57129 3 3.57129ZM20 11.5713H4V19.5713H20V11.5713ZM20 9.57129V5.57129H4V9.57129H20ZM14 15.5713H18V17.5713H14V15.5713Z" fill="white"/>
</svg>
