<svg width="49" height="48" viewBox="0 0 49 48" fill="none" xmlns="http://www.w3.org/2000/svg">
<path d="M24.5 44C22.8636 44 21.3004 43.3292 18.1739 41.9878C10.3913 38.6486 6.5 36.979 6.5 34.1706V15.495M24.5 44C26.1364 44 27.6996 43.3292 30.8262 41.9878C38.6088 38.6486 42.5 36.979 42.5 34.1706V15.495M24.5 44V24.3414M6.5 15.495C6.5 16.7025 8.10314 17.465 11.3094 18.99L17.1518 21.7688C20.7576 23.4838 22.5606 24.3414 24.5 24.3414M6.5 15.495C6.5 14.2875 8.10314 13.525 11.3094 12M42.5 15.495C42.5 16.7025 40.8968 17.465 37.6906 18.99L31.8482 21.7688C28.2424 23.4838 26.4394 24.3414 24.5 24.3414M42.5 15.495C42.5 14.2875 40.8968 13.525 37.6906 12M13.1641 26.622L17.1518 28.5188M24.5 4V8M32.5 6L29.5 10M16.5 6L19.5 10" stroke="#FF9601" stroke-width="3" stroke-linecap="round" stroke-linejoin="round"/>
</svg>
