<svg width="24" height="25" viewBox="0 0 24 25" fill="none" xmlns="http://www.w3.org/2000/svg">
<path d="M16.1992 5.17126C18.6469 5.17127 20.5996 7.12394 20.5996 9.57166C20.5996 10.7541 20.4212 12.4355 18.8926 13.9642L18.8711 13.9857C18.1504 14.7514 16.5117 15.9944 14.9414 17.1215C14.1729 17.6731 13.4465 18.1791 12.8965 18.5619C12.6232 18.7521 12.3896 18.9138 12.2188 19.0345C12.1337 19.0946 12.0595 19.1486 12.001 19.1918C11.9928 19.1978 11.9785 19.2079 11.9609 19.2211C11.9483 19.2272 11.9366 19.2341 11.9248 19.2396C11.9154 19.244 11.9063 19.2468 11.8984 19.2504C11.891 19.247 11.8828 19.2437 11.874 19.2396C11.863 19.2345 11.8515 19.2287 11.8398 19.223C11.8247 19.2115 11.8125 19.2016 11.8047 19.1957C11.7467 19.1521 11.6728 19.0978 11.5879 19.0365C11.4169 18.913 11.1832 18.7477 10.9092 18.5531C10.3585 18.162 9.63144 17.6462 8.86133 17.0873C7.29284 15.9489 5.63905 14.697 4.90625 13.9642C3.37746 12.4354 3.19926 10.7541 3.19922 9.57166C3.19922 7.13591 5.23985 5.17126 7.59961 5.17126C9.0547 5.17139 10.3603 5.89698 11.1855 7.05212L11.999 8.19177L12.8125 7.05212C13.6507 5.8787 14.9643 5.17126 16.1992 5.17126Z" stroke="#FF9601" stroke-width="2"/>
</svg>
