<svg width="24" height="24" viewBox="0 0 24 24" fill="none" xmlns="http://www.w3.org/2000/svg">
<path d="M11.2496 3.70725C11.6402 3.5694 11.8451 3.14101 11.7072 2.7504C11.5694 2.3598 11.141 2.1549 10.7504 2.29275L11.2496 3.70725ZM10.3374 3.23384L10.0878 2.52659L10.0878 2.5266L10.3374 3.23384ZM5.73464 18.3626L5.12237 18.7958L5.12239 18.7958L5.73464 18.3626ZM10.3374 20.7662L10.0878 21.4734L10.0878 21.4735L10.3374 20.7662ZM10.7504 21.7073C11.141 21.8451 11.5694 21.6402 11.7073 21.2496C11.8451 20.8589 11.6402 20.4306 11.2496 20.2927L10.7504 21.7073ZM11 11.25C10.5858 11.25 10.25 11.5858 10.25 12C10.25 12.4142 10.5858 12.75 11 12.75V11.25ZM19.0227 8.96219C18.7257 8.67349 18.2509 8.68023 17.9622 8.97726C17.6735 9.27428 17.6802 9.74911 17.9773 10.0378L19.0227 8.96219ZM17.9773 13.9622C17.6802 14.2509 17.6735 14.7257 17.9622 15.0227C18.2509 15.3198 18.7257 15.3265 19.0227 15.0378L17.9773 13.9622ZM10.7504 2.29275L10.0878 2.52659L10.587 3.94109L11.2496 3.70725L10.7504 2.29275ZM10.0878 2.5266C8.81449 2.97601 7.80047 3.33273 7.01711 3.71279C6.21659 4.10117 5.58919 4.54447 5.12239 5.20424L6.34689 6.0706C6.61473 5.69203 6.99935 5.38862 7.67186 5.06234C8.36154 4.72773 9.28158 4.40183 10.587 3.94108L10.0878 2.5266ZM5.12239 5.20424C4.65558 5.86402 4.44637 6.60319 4.34656 7.48734C4.24889 8.35255 4.25 9.4275 4.25 10.7778H5.75C5.75 9.3934 5.75111 8.41733 5.8371 7.65561C5.92095 6.91283 6.07906 6.44916 6.34689 6.0706L5.12239 5.20424ZM4.25 10.7778V13.2222H5.75V10.7778H4.25ZM4.25 13.2222C4.25 14.5725 4.24889 15.6474 4.34656 16.5126C4.44637 17.3968 4.65559 18.136 5.12237 18.7958L6.34691 17.9294C6.07905 17.5508 5.92095 17.0872 5.8371 16.3444C5.75111 15.5827 5.75 14.6066 5.75 13.2222H4.25ZM5.12239 18.7958C5.58919 19.4555 6.21659 19.8988 7.01711 20.2872C7.80047 20.6673 8.81448 21.024 10.0878 21.4734L10.587 20.059C9.28159 19.5982 8.36154 19.2723 7.67187 18.9377C6.99934 18.6114 6.61473 18.308 6.34689 17.9294L5.12239 18.7958ZM10.0878 21.4735L10.7504 21.7073L11.2496 20.2927L10.587 20.0589L10.0878 21.4735ZM21 11.25H11V12.75H21V11.25ZM21.75 12C21.75 11.7417 21.661 11.5193 21.5746 11.3578C21.485 11.1904 21.369 11.0348 21.2515 10.8968C21.0168 10.6213 20.7151 10.3458 20.4245 10.0995C20.1307 9.85057 19.8216 9.60953 19.5672 9.40971C19.2958 9.19652 19.114 9.05089 19.0227 8.96219L17.9773 10.0378C18.1388 10.1949 18.396 10.3971 18.6407 10.5893C18.9025 10.7949 19.1868 11.0169 19.4548 11.2439C19.726 11.4738 19.9544 11.6873 20.1095 11.8694C20.1868 11.9602 20.2306 12.0255 20.2521 12.0656C20.2767 12.1116 20.25 12.0832 20.25 12H21.75ZM20.25 12C20.25 11.9168 20.2767 11.8884 20.2521 11.9344C20.2306 11.9745 20.1868 12.0399 20.1095 12.1306C19.9544 12.3127 19.726 12.5262 19.4548 12.7561C19.1868 12.9831 18.9025 13.2051 18.6407 13.4107C18.396 13.6029 18.1389 13.8051 17.9773 13.9622L19.0227 15.0378C19.114 14.9491 19.2958 14.8035 19.5672 14.5903C19.8216 14.3905 20.1307 14.1494 20.4245 13.9005C20.7151 13.6543 21.0168 13.3787 21.2515 13.1032C21.369 12.9652 21.485 12.8096 21.5746 12.6422C21.661 12.4807 21.75 12.2583 21.75 12H20.25Z" fill="#e30613"/>
</svg>
