<svg width="25" height="25" viewBox="0 0 25 25" fill="none" xmlns="http://www.w3.org/2000/svg">
<path d="M3.5 11.1713H6.5C7.03043 11.1713 7.53914 11.382 7.91421 11.7571C8.28929 12.1321 8.5 12.6408 8.5 13.1713V16.1713C8.5 16.7017 8.28929 17.2104 7.91421 17.5855C7.53914 17.9606 7.03043 18.1713 6.5 18.1713H5.5C4.96957 18.1713 4.46086 17.9606 4.08579 17.5855C3.71071 17.2104 3.5 16.7017 3.5 16.1713V11.1713ZM3.5 11.1713C3.5 9.98937 3.73279 8.81904 4.18508 7.72711C4.63738 6.63518 5.30031 5.64303 6.13604 4.8073C6.97177 3.97158 7.96392 3.30864 9.05585 2.85635C10.1478 2.40406 11.3181 2.17126 12.5 2.17126C13.6819 2.17126 14.8522 2.40406 15.9442 2.85635C17.0361 3.30864 18.0282 3.97158 18.864 4.8073C19.6997 5.64303 20.3626 6.63518 20.8149 7.72711C21.2672 8.81904 21.5 9.98937 21.5 11.1713M21.5 11.1713V16.1713C21.5 16.7017 21.2893 17.2104 20.9142 17.5855C20.5391 17.9606 20.0304 18.1713 19.5 18.1713H18.5C17.9696 18.1713 17.4609 17.9606 17.0858 17.5855C16.7107 17.2104 16.5 16.7017 16.5 16.1713V13.1713C16.5 12.6408 16.7107 12.1321 17.0858 11.7571C17.4609 11.382 17.9696 11.1713 18.5 11.1713H21.5Z" stroke="#FF9601" stroke-width="2" stroke-linecap="round" stroke-linejoin="round"/>
<path d="M21.5 16.1713V18.1713C21.5 19.2321 21.0786 20.2495 20.3284 20.9997C19.5783 21.7498 18.5609 22.1713 17.5 22.1713H12.5" stroke="#FF9601" stroke-width="2" stroke-linecap="round" stroke-linejoin="round"/>
</svg>
