<svg width="24" height="25" viewBox="0 0 24 25" fill="none" xmlns="http://www.w3.org/2000/svg">
<path d="M15 18.1682H10" stroke="#FF9601" stroke-width="2" stroke-linecap="round" stroke-linejoin="round"/>
<path d="M18 14.1682H10" stroke="#FF9601" stroke-width="2" stroke-linecap="round" stroke-linejoin="round"/>
<path d="M4 22.1682H20C20.5304 22.1682 21.0391 21.9575 21.4142 21.5824C21.7893 21.2074 22 20.6986 22 20.1682V4.16821C22 3.63778 21.7893 3.12907 21.4142 2.754C21.0391 2.37893 20.5304 2.16821 20 2.16821H8C7.46957 2.16821 6.96086 2.37893 6.58579 2.754C6.21071 3.12907 6 3.63778 6 4.16821V20.1682C6 20.6986 5.78929 21.2074 5.41421 21.5824C5.03914 21.9575 4.53043 22.1682 4 22.1682ZM4 22.1682C3.46957 22.1682 2.96086 21.9575 2.58579 21.5824C2.21071 21.2074 2 20.6986 2 20.1682V11.1682C2 10.6378 2.21071 10.1291 2.58579 9.754C2.96086 9.37893 3.46957 9.16821 4 9.16821H6" stroke="#FF9601" stroke-width="2" stroke-linecap="round" stroke-linejoin="round"/>
<path d="M17 6.16821H11C10.4477 6.16821 10 6.61593 10 7.16821V9.16821C10 9.7205 10.4477 10.1682 11 10.1682H17C17.5523 10.1682 18 9.7205 18 9.16821V7.16821C18 6.61593 17.5523 6.16821 17 6.16821Z" stroke="#FF9601" stroke-width="2" stroke-linecap="round" stroke-linejoin="round"/>
</svg>
