<svg width="101" height="102" viewBox="0 0 101 102" fill="none" xmlns="http://www.w3.org/2000/svg">
<path d="M33.6667 67.8334H64.2326C83.1179 67.8334 85.9901 55.9692 89.4734 38.6657C90.4783 33.6748 90.9808 31.1793 89.7726 29.5168C88.5644 27.8542 86.2485 27.8542 81.6168 27.8542H25.25" stroke="#FF9601" stroke-width="5" stroke-linecap="round"/>
<path d="M33.6663 67.8334L22.6352 15.292C21.6985 11.5452 18.3319 8.91669 14.4698 8.91669H10.5205" stroke="#FF9601" stroke-width="5" stroke-linecap="round"/>
<path d="M37.37 67.8333H35.6386C29.9011 67.8333 25.25 72.6784 25.25 78.6546C25.25 79.6507 26.0252 80.4583 26.9814 80.4583H73.6458" stroke="#FF9601" stroke-width="5" stroke-linecap="round" stroke-linejoin="round"/>
<path d="M44.1875 93.0833C47.6738 93.0833 50.5 90.2571 50.5 86.7708C50.5 83.2845 47.6738 80.4583 44.1875 80.4583C40.7012 80.4583 37.875 83.2845 37.875 86.7708C37.875 90.2571 40.7012 93.0833 44.1875 93.0833Z" stroke="#FF9601" stroke-width="5"/>
<path d="M73.6455 93.0833C77.1318 93.0833 79.958 90.2571 79.958 86.7708C79.958 83.2845 77.1318 80.4583 73.6455 80.4583C70.1592 80.4583 67.333 83.2845 67.333 86.7708C67.333 90.2571 70.1592 93.0833 73.6455 93.0833Z" stroke="#FF9601" stroke-width="5"/>
</svg>
